[img]http://briefcase.pathfinder.gr/download/540731/numberone.gif[/img]
[img]http://briefcase.pathfinder.gr/download/538827/seed.gif[/img]

[img]http://www.33smiley.com/smiley5/work/5.gif[/img]

[img]http://www.tubaba.com/movie_poster/uploadfile/200704/20070414105452594.jpg[/img]

IMDB Link:http://www.imdb.com/title/tt0117318/

Plot:Strip club owner Larry Flynt and his wife, Althea, create a pornographic magazine that ignores society's morals and taboos. "Hustler" magazine brings the Flynts not only millions in profit but also the wrath of "decent" people. Flynt and his overburdened attorney find themselves in courtrooms all over the nation defending Larry against criminal and civil charges. In the meantime, Flynt is beset by paralysis, the result of an assassination attempt, drug addiction, mental illness, and Althea's failing health.

[IMG]http://i981.photobucket.com/albums/ae294/fasamoo/THE_PEOPLE_VS_LARRY_FLYNT_201005-6.jpg[/IMG]
[IMG]http://i981.photobucket.com/albums/ae294/fasamoo/THE_PEOPLE_VS_LARRY_FLYNT_20100521-.jpg[/IMG]
[IMG]http://i981.photobucket.com/albums/ae294/fasamoo/THE_PEOPLE_VS_LARRY_FLYNT_201005-5.jpg[/IMG]
[IMG]http://i981.photobucket.com/albums/ae294/fasamoo/THE_PEOPLE_VS_LARRY_FLYNT_201005-1.jpg[/IMG]
[IMG]http://i981.photobucket.com/albums/ae294/fasamoo/THE_PEOPLE_VS_LARRY_FLYNT_201005-4.jpg[/IMG]
[IMG]http://i981.photobucket.com/albums/ae294/fasamoo/THE_PEOPLE_VS_LARRY_FLYNT_201005-2.jpg[/IMG]
[IMG]http://i981.photobucket.com/albums/ae294/fasamoo/THE_PEOPLE_VS_LARRY_FLYNT_201005-3.jpg[/IMG]

General
Complete name                    : The People vs. Larry Flynt 1996 DVDRip GoGoThe People vs. Larry Flynt 1996 DVDRip GoGo.avi
Format                           : AVI
Format/Info                      : Audio Video Interleave
File size                        : 800 MiB
Duration                         : 2h 9mn
Overall bit rate                 : 864 Kbps
Writing application              : VirtualDubMod 1.5.4.1 (build 2178/release)
Writing library                  : VirtualDubMod build 2178/release

Video
ID                               : 0
Format                           : MPEG-4 Visual
Format profile                   : Advanced Simple@L5
Format settings, BVOP            : Yes
Format settings, QPel            : No
Format settings, GMC             : No warppoints
Format settings, Matrix          : Custom
Codec ID                         : XVID
Codec ID/Hint                    : XviD
Duration                         : 2h 9mn
Bit rate                         : 743 Kbps
Width                            : 576 pixels
Height                           : 224 pixels
Display aspect ratio             : 2.571
Frame rate                       : 23.976 fps
Resolution                       : 8 bits
Colorimetry                      : 4:2:0
Scan type                        : Progressive
Bits/(Pixel*Frame)               : 0.240
Stream size                      : 688 MiB (86%)
Writing library                  : XviD 1.2.1 (UTC 2008-12-04)

Audio
ID                               : 1
Format                           : MPEG Audio
Format version                   : Version 1
Format profile                   : Layer 3
Mode                             : Joint stereo
Format_Settings_ModeExtension    : MS Stereo
Codec ID                         : 55
Codec ID/Hint                    : MP3
Duration                         : 2h 9mn
Bit rate mode                    : Variable
Bit rate                         : 108 Kbps
Nominal bit rate                 : 128 Kbps
Channel(s)                       : 2 channels
Sampling rate                    : 48.0 KHz
Stream size                      : 100 MiB (13%)
Alignment                        : Aligned on interleaves
Interleave, duration             : 24 ms (0.58 video frame)
Interleave, preload duration     : 170 ms
Writing library                  : LAME3.98r
Encoding settings                : -m j -V 4 -q 2 -lowpass 17 --abr 128
Language                         : English
Subtitles                        : English,Francais,Espanol,Portugues,Chinese,Thai.(.IDX+*.SUB)
                                 : English.(.srt)
Genre                            : Biography | Drama 
